<svg id="Layer_1" data-name="Layer 1" xmlns="http://www.w3.org/2000/svg" width="768" height="768" viewBox="0 0 768 768">
  <defs>
    <style>
      .cls-1 {
        fill: #2851a1;
      }

      .cls-2 {
        fill: #3c79f0;
      }
    </style>
  </defs>
  <path class="cls-1" d="M384,197a208,208,0,1,1-147.08,60.92A206.67,206.67,0,0,1,384,197m0-90C219.42,107,86,240.42,86,405S219.42,703,384,703,682,569.58,682,405,548.58,107,384,107Z"/>
  <path class="cls-2" d="M384,157a208,208,0,1,1-147.08,60.92A206.67,206.67,0,0,1,384,157m0-90C219.42,67,86,200.42,86,365S219.42,663,384,663,682,529.58,682,365,548.58,67,384,67Z"/>
</svg>
